<svg width="276" height="86" viewBox="0 0 276 86" fill="none" xmlns="http://www.w3.org/2000/svg">
<path d="M138 86V0H3C67.1061 15.8547 113.549 46.048 138 86Z" fill="#E5D285"/>
<path d="M138 86V0H276C210.469 15.8547 162.995 46.048 138 86Z" fill="#E5D285"/>
<path fill-rule="evenodd" clip-rule="evenodd" d="M138 82.3152C113.124 45.6 63.809 15.7069 3.24377 0H0.243791L0 1.8616C65.5019 17.4225 112.9 46.9485 138 85.8835V82.3152Z" fill="url(#paint0_linear_199_15)"/>
<path fill-rule="evenodd" clip-rule="evenodd" d="M138 82.3152C162.876 45.6 212.191 15.7069 272.756 0H275.756L276 1.8616C210.498 17.4225 163.1 46.9485 138 85.8835V82.3152Z" fill="url(#paint1_linear_199_15)"/>
<defs>
<linearGradient id="paint0_linear_199_15" x1="69.7438" y1="0.945055" x2="69.7438" y2="86" gradientUnits="userSpaceOnUse">
<stop stop-color="#E5D285"/>
<stop offset="1" stop-color="white"/>
</linearGradient>
<linearGradient id="paint1_linear_199_15" x1="206.256" y1="0.945055" x2="206.256" y2="86" gradientUnits="userSpaceOnUse">
<stop stop-color="#E5D285"/>
<stop offset="1" stop-color="white"/>
</linearGradient>
</defs>
</svg>
